<svg width="512" height="512" viewBox="0 0 512 512" fill="none" xmlns="http://www.w3.org/2000/svg">
  <rect width="512" height="512" rx="120" fill="#FFF6EE"/>
  <rect x="84" y="84" width="344" height="344" rx="72" fill="#BD3C2B"/>
  <path d="M174 170H338C351.255 170 362 180.745 362 194V318C362 331.255 351.255 342 338 342H174C160.745 342 150 331.255 150 318V194C150 180.745 160.745 170 174 170Z" fill="#FFF6EE"/>
  <path d="M196 214C196 201.85 205.85 192 218 192H294C306.15 192 316 201.85 316 214V298C316 310.15 306.15 320 294 320H218C205.85 320 196 310.15 196 298V214Z" fill="#4472C4"/>
  <circle cx="226" cy="226" r="16" fill="#FFF6EE"/>
  <circle cx="286" cy="226" r="16" fill="#FFF6EE"/>
  <circle cx="256" cy="256" r="16" fill="#FFF6EE"/>
  <circle cx="226" cy="286" r="16" fill="#FFF6EE"/>
  <circle cx="286" cy="286" r="16" fill="#FFF6EE"/>
  <path d="M124 150C124 135.641 135.641 124 150 124H184V152H152V184H124V150Z" fill="#D9A441"/>
  <path d="M388 150C388 135.641 376.359 124 362 124H328V152H360V184H388V150Z" fill="#D9A441"/>
  <path d="M124 362C124 376.359 135.641 388 150 388H184V360H152V328H124V362Z" fill="#D9A441"/>
  <path d="M388 362C388 376.359 376.359 388 362 388H328V360H360V328H388V362Z" fill="#D9A441"/>
</svg>
